<?xml version="1.0" standalone="no"?>
<!DOCTYPE svg PUBLIC "-//W3C//DTD SVG 20010904//EN"
 "http://www.w3.org/TR/2001/REC-SVG-20010904/DTD/svg10.dtd">
<svg version="1.0" xmlns="http://www.w3.org/2000/svg"
 width="144.000000pt" height="124.000000pt" viewBox="0 0 144.000000 124.000000"
 preserveAspectRatio="xMidYMid meet">

<g transform="translate(0.000000,124.000000) scale(0.100000,-0.100000)"
fill="#1976d2" stroke="none">
<path d="M640 1209 c-91 -41 -159 -138 -160 -229 l0 -45 -20 43 c-22 49 -33
61 -85 96 -53 36 -140 36 -201 1 -94 -55 -125 -175 -70 -270 29 -48 72 -82
118 -92 51 -10 29 -23 -40 -23 -40 0 -73 -5 -80 -12 -9 -9 -12 -86 -12 -286 0
-250 2 -276 18 -288 13 -11 107 -13 459 -14 503 0 473 -5 473 84 0 29 3 56 7
59 3 4 53 -18 109 -48 57 -30 108 -55 114 -55 5 0 19 9 30 20 19 19 20 33 20
243 0 204 -2 225 -18 240 -10 10 -27 17 -36 17 -10 0 -62 -29 -116 -64 -54
-36 -101 -62 -104 -59 -3 4 -6 36 -6 73 0 38 -5 71 -12 78 -8 8 -53 12 -135
12 -75 0 -123 4 -123 10 0 6 9 10 20 10 30 0 111 44 142 77 71 75 90 205 42
301 -60 120 -213 176 -334 121z m161 -135 c37 -19 67 -81 61 -124 -2 -17 -19
-47 -37 -66 -27 -29 -39 -34 -76 -34 -59 0 -104 29 -119 75 -36 109 70 202
171 149z m-466 -109 c54 -53 16 -145 -60 -145 -49 0 -85 36 -85 85 0 49 36 85
85 85 25 0 44 -8 60 -25z m228 -189 c39 -34 103 -65 137 -66 19 0 22 -2 10
-10 -20 -13 -410 -13 -410 0 0 5 7 10 16 10 30 0 93 43 120 82 15 22 29 57 32
84 l5 47 29 -59 c16 -33 43 -72 61 -88z"/>
</g>
</svg>
